<svg xmlns="http://www.w3.org/2000/svg" viewBox="0 0 387.4 102" xmlns:v="https://vecta.io/nano"><path d="M70.4 69c-8.6-37-34.2-32.2-34.2-32.2S24 39.3 21.8 52.2c-.6 3.5-1.6 10.5 15.2 7 1-.2 2 .2 2.6.9 1.7 2.2 5.4 6.2 7.7 4.9 2.1-1.3 4-3.1 5.7-4.9 1.2-1.3 3.4-1 4.3.5 1.7 3 3.2 6 4 9.4s1.4 6.9 1.3 10.4c0 2.6-.2 8.1-2.6 9.7-2 1.3-5.9-.9-7.9-1.5-1.8-.5-3.6-1-5.5-1.4-2.1-.5-4.4-.8-6.5-.3-2.2.5-3.5 2-5.3 3.2-3.8 2.6-8.8 4-12.3.2-4.7-5.2-5.5-11.8-3.5-17.7.7-2.3-1.5-4.1-3.7-3.2C12.1 70.6 4 86.9 11.1 95c3.8 4.4 10.4 6.2 15.8 5.8 5.3-.4 6-2.3 9.2-3.8 2.2-1.1 4.7-1.6 7-.8 3.9 1.2 7.8 2.9 11.6 4.2 5.4 1.9 9.4 2.5 12.4.8 1.8-1.1 3.1-2.6 4-4.6 4-8.4 1.2-19.5-.7-27.6zM50.2 57.9c-1.4 1.2-3.5.6-4.2-1-.7-1.5-1.4-3.1-1.8-3-1.3.3-2.7.7-4 1-.6.2-1.3.1-1.9-.2-1.9-1-5.5-3.6-.3-7.5 6.8-5 12.3.5 14.8 5.4a2.74 2.74 0 0 1-.4 3c-.6.9-1.4 1.6-2.2 2.3zM19.4 41.1c0-6.4-3.2-13.7-7.7-17.2-4.4-3.4-8.4-2.4-10.3 2.9-2.2 6.1-1.6 12.3.9 18.2 1.9 4.5 5.5 6.1 10.4 5.1 4.4-1.1 6.6-4 6.7-9zM68 7.2c1.3 3.3 1.3 6.9.3 10.3-.9 3.1-1.8 6.3-3.2 9.2-2.4 5-7.1 6.8-11.9 5.6-5.2-1.2-8.8-5.5-8.7-10.9.1-7.4 3.2-13.6 9.4-17.9C57 1.3 60.4.4 64 2.3c1.8 1 3.1 2.6 4 4.9zm-50.8 8.6c0-4 .9-7.5 2.3-10.7 2-4.5 7.4-6.5 11.8-4.1 7.1 4 11.2 16.2 8.4 24-1.7 4.6-5.2 6.9-9.9 7.3s-8.5-1.6-10.3-5.9c-1.5-3.3-2.3-5-2.3-10.6zm70.1 13.3c.8 2.1 1 4.4.4 6.5-1.1 4-2 7.7-3.4 11.1-2.3 5.5-6.8 7-12.9 4.8-6-2.1-8-5.6-6.6-11.6 1.5-6.3 5.1-11.2 10.7-14.1 2.6-1.3 6.6-2.1 8.8-1 1.4.7 2.3 2.4 3 4.3z" fill="#f1a959"/><path d="M112.8 86.6c-.8 0-1.8-.2-3-.5s-1.9-1.4-2.2-3.2c-.3-5.2-.5-16.9-.5-35.1V34.3c.1-1.3.6-2.2 1.5-2.8s2.3-1 3.9-1.2c1.7-.2 3.6-.3 5.7-.3 3.4 0 6.2.7 8.5 2.1s4.1 3.2 5.4 5.4c1.7 3 2.6 6.4 2.6 10.2 0 1.7-.2 3.7-.7 5.9s-1.4 4.4-2.8 6.6-3.2 4-5.4 5.4-4.8 2.1-7.7 2.1l.1 11.2c0 2 0 3.5-.1 4.5-.2 1.2-1 2.2-2.7 2.7-.8.3-1.7.5-2.6.5zm5.2-25c1.6 0 2.9-.7 4-2s1.9-3 2.4-5c.6-2 .8-4.2.8-6.4a26.71 26.71 0 0 0-.8-6.4c-.5-2-1.3-3.7-2.4-5s-2.4-1.8-4-1.8c-.1 1-.1 2.5-.1 4.5l.1 12.3v9.8zm44.1 25.6c-2.9 0-4.6-.9-5-2.9-.9-5.9-1.7-9.3-2.5-10.1-.5-.3-1.7-.5-3.4-.5-2.3 0-4.7.2-7.3.6-2.1.3-3.4.7-3.9 1.1-.1.1-.5 1.2-1.2 3.4-.9 2.8-1.6 4.9-2.2 6.1-.5.9-1 1.3-1.6 1.3s-.9.1-1 .1a5.21 5.21 0 0 1-2.9-.9c-.8-.6-1.1-1.5-1.1-2.6v-.7c.7-3.5 2-8.6 4-15.1s4.2-13.1 6.6-19.7 4.6-11.6 6.5-15.2c.8-1.4 1.8-2.2 2.9-2.5s1.9-.5 2.5-.5c.8 0 1.7.2 2.5.5 1.4.6 2.4 1.6 3.1 3.1 1.5 4.4 3.7 15.2 6.8 32.5l3.1 18.2c0 1.3-.8 2.3-2.3 2.9a7.11 7.11 0 0 1-3.6.9zm-14.3-18.4c1.3 0 2.5-.1 3.6-.2s1.8-.4 2.1-.6c.1-.2.2-.6.2-1.2 0-1.8-.4-5-1.2-9.8-1.1-6.6-1.9-10.1-2.5-10.3-.5.1-1.9 3.4-4.2 9.9-2.1 6-3.2 9.8-3.2 11.2 0 .7 1.5 1 4.5 1 0-.1.7-.1.7 0zm31.1 17.8c-.8 0-1.8-.2-3-.6s-2.1-1.4-2.8-2.9c-.8-2.5-1.9-6.7-3.1-12.5s-2.4-12-3.5-18.6-1.9-12.2-2.4-17v-.3c0-1.7.7-3 2-3.8a6.11 6.11 0 0 1 3.4-1c.4 0 1.1.1 2.1.3s1.9 1.1 2.5 2.6c.6 1.9 1.6 7 2.9 15.3l2.2 12.6c.7 3.7 1.3 5.6 1.7 5.6.3 0 .7-1 1.3-3.1s1.2-4.5 1.9-7.2c.8-3.3 1.6-6.1 2.2-8.4.6-1.8 1.7-3 3.2-3.6.9-.4 1.7-.6 2.6-.6.7 0 1.5.2 2.6.5s2 1.3 2.8 3c1 2.4 2.4 6.9 4.1 13.4l1.5 5.5c.4 1.5.7 2.2.9 2.2.6-.5 2.1-7.1 4.6-19.7 1.3-6.7 2.4-11.8 3.3-15.5.5-1.5 1.4-2.2 2.8-2.2.7 0 1.3.2 1.8.6.7.5 1 1.1 1 2.1 0 .2-1.3 8.4-3.8 24.8-2 13.2-3.5 21.1-4.5 23.8-1.2 3.1-3.4 4.6-6.6 4.6s-5.3-1.3-6.6-4c-.8-2-1.5-4.9-2.2-8.7-.6-2.7-1.1-5-1.7-7s-1.2-3.1-1.8-3.2c-1.2.4-2.7 4.8-4.5 13.2-.6 2.7-1.1 4.8-1.5 6.3-.6 1.5-1.7 2.5-3.2 3.1-.7.3-1.5.4-2.2.4zm58.5-.1c-.8 0-1.5-.1-2.2-.4-1.4-.5-2.3-1.7-2.5-3.4-.4-6.1-.5-15.4-.5-27.8V39.7c-.8 0-2 .1-3.4.2-1.6.2-3.3.2-5 .3-1.8-.1-2.6-1.7-2.6-4.8 0-.7.1-1.4.2-2.1.3-1.5 1-2.4 2.1-2.7 4.2-.3 9.2-.5 15-.5s10 .2 12.7.5c1.7.4 2.5 1.9 2.5 4.5 0 .7-.1 1.3-.3 2-.4 1.3-1.1 2.1-2.2 2.2-.8 0-1.8.1-2.9.1h-3.2l-2.1-.1h-.8l.3 26c0 8.7-.1 14.6-.3 17.7-.6 2.3-2.1 3.5-4.8 3.5zm44.5.4c-.2 0-.7 0-1.6-.1s-1.8-.7-2.6-1.8c-.8-1.5-1.7-4-2.7-7.6l-2.1-6.8c-1.6-4.8-3.3-7.2-4.9-7.2l-.5.1-.3 10-.3 9.5c-.3 1.6-1.2 2.7-2.8 3.2a6.28 6.28 0 0 1-1.9.3c-3.2 0-5-1.5-5.3-4.5-.2-5.9-.3-15.3-.3-28.1l.3-20c.4-2.9 4.7-4.3 12.9-4.3 6.9 0 11.6 2.5 14.2 7.6 1.3 2.6 2 5.5 2 8.7 0 4.8-1.2 8.9-3.6 12.2-1.2 1.8-2.7 2.9-4.3 3.5.9.9 1.8 2.5 2.7 4.9a143.45 143.45 0 0 1 2.7 7.9l2.8 8.1c.1.4.2.8.2 1.1 0 .9-.4 1.7-1.1 2.2-1.1.8-2.2 1.1-3.5 1.1zM268 59c1.5 0 2.9-.6 4-1.7s2-2.6 2.7-4.4c.8-2.1 1.1-4.3 1.1-6.6 0-1.6-.2-3.2-.7-4.9-.5-1.6-1.3-3-2.5-4.1s-2.7-1.7-4.7-1.7L268 59h0zm53.7 28.2c-2.9 0-4.5-.9-5-2.9-.9-5.9-1.7-9.3-2.5-10.1-.5-.3-1.7-.5-3.4-.5-2.3 0-4.7.2-7.3.6-2.1.3-3.4.7-3.9 1.1 0 .1-.5 1.2-1.2 3.4-.9 2.8-1.6 4.9-2.2 6.1-.5.9-1 1.3-1.6 1.3s-1 .1-1 .1a5.21 5.21 0 0 1-2.9-.9c-.8-.6-1.1-1.5-1.1-2.6v-.7c.7-3.5 2-8.6 4-15.1s4.2-13.1 6.6-19.7 4.6-11.6 6.5-15.2c.8-1.4 1.8-2.2 2.9-2.5s1.9-.5 2.5-.5c.8 0 1.7.2 2.5.5 1.4.6 2.4 1.6 3 3.1 1.5 4.4 3.7 15.2 6.8 32.5l3.1 18.2c0 1.3-.8 2.3-2.3 2.9-1.2.7-2.3.9-3.5.9zm-14.4-18.4c1.3 0 2.5-.1 3.6-.2 1.1-.2 1.8-.4 2.1-.6.1-.2.2-.6.2-1.2 0-1.8-.4-5-1.2-9.8-1.1-6.6-1.9-10.1-2.5-10.3-.5.1-1.9 3.4-4.2 9.9-2.1 6-3.2 9.8-3.2 11.2 0 .7 1.5 1 4.5 1 .1-.1.7-.1.7 0zm29.8 18c-2.2 0-3.8-.1-4.9-.3-.6-.2-1-.5-1.2-1.1s-.3-1.2-.3-1.7c0-1.2.5-2 1.3-2.3 1-.3 2.1-.4 3.2-.4l-.2-24.1c0-8.3.2-15.2.5-20.7h-.6c-1 0-2 0-2.9.1-.9-.1-1.4-.9-1.4-2.4 0-.6.1-1.2.3-1.9.3-1 .9-1.5 1.6-1.7 2.1-.2 5.5-.3 10-.3 3.3 0 5.4.1 6.1.2 1 .4 1.5 1.3 1.5 2.9-.1 1.5-.5 2.4-1.2 2.6-.3.1-1.1.2-2.3.3.1 1.5.1 3.9.1 7.2l-.1 12.3-.7 25.3c.9 0 2 .1 3.2.3.9.2 1.3 1.1 1.3 2.5 0 1.7-.6 2.7-1.8 2.9-3 .1-6.7.3-11.5.3zm21.9.1c-.7 0-1.5-.2-2.6-.5s-1.7-1.4-2-3.1c-.4-5.7-.7-13.7-1-24.2l-.1-13.6a369.6 369.6 0 0 1 .2-11.6c.3-2.8 1.9-4.2 4.8-4.2 2.3 0 4.1.8 5.5 2.4.9 1.3 2.2 4 4 8.2 2.9 6.6 6 14.4 9.3 23.3l-.8-15.7c-.2-4.6-.3-8.3-.3-11.3v-2.8c.2-1.9 1.2-3.2 3-3.9.8-.3 1.7-.5 2.6-.5 3.5 0 5.4 1.5 5.5 4.4l.1 12.7.1 36.6c-.1 1.2-.7 2.1-2 2.6a6.71 6.71 0 0 1-2.8.6c-.4 0-1.1-.1-2.1-.2s-1.8-.8-2.6-1.9c-1.2-2-2.8-5.1-4.7-9.3s-3.7-8.5-5.5-12.7c-1.7-4.2-2.9-7.2-3.5-9.1.1 3.7.1 8.7.1 15 0 6.5-.1 11.5-.3 15-.2 1.6-1.1 2.7-2.6 3.3-.7.4-1.5.5-2.3.5z" fill="#fff"/></svg>